#N canvas 83 170 450 482 10;
#X obj 118 38 lop~ 1;
#X obj 131 66 env~;
#X obj 132 95 moses 50;
#X obj 175 117 moses 51;
#X obj 178 144 bang;
#X obj 177 184 random 30;
#X obj 195 253 line~;
#X obj 195 312 *~;
#X obj 142 333 * 500;
#X obj 136 361 + 1500;
#X obj 127 415 *~;
#X obj 90 449 outlet~;
#X obj 99 18 inlet~;
#X obj 127 389 bp~ 4000 2;
#X msg 192 219 1 \, 0 15;
#X connect 0 0 1 0;
#X connect 1 0 2 0;
#X connect 2 1 3 0;
#X connect 3 0 4 0;
#X connect 4 0 5 0;
#X connect 5 0 8 0;
#X connect 5 0 14 0;
#X connect 6 0 7 0;
#X connect 6 0 7 1;
#X connect 7 0 10 1;
#X connect 8 0 9 0;
#X connect 9 0 13 1;
#X connect 10 0 11 0;
#X connect 12 0 0 0;
#X connect 12 0 13 0;
#X connect 13 0 10 0;
#X connect 14 0 6 0;
