#N canvas 769 174 450 552 10;
#X obj 67 106 hissing;
#X obj 144 45 noise~;
#X obj 253 107 lapping;
#X obj 153 136 *~ 0.1;
#X obj 252 143 *~ 2;
#X obj 155 183 inlet crackcles;
#X obj 277 181 inlet lapping;
#X obj 155 221 sig~ 1;
#X obj 156 247 *~;
#X obj 150 275 *~ 0.5;
#X obj 269 221 sig~ 1;
#X obj 264 248 lop~ 10;
#X obj 251 304 *~;
#X obj 131 336 lop~ 10;
#X obj 98 377 *~;
#X obj 187 396 *~;
#X obj 224 343 lop~ 10;
#X obj 108 419 *~ 0.5;
#X obj 177 477 outlet~;
#X obj 154 105 crackcles;
#X connect 0 0 14 0;
#X connect 1 0 0 0;
#X connect 1 0 2 0;
#X connect 1 0 19 0;
#X connect 2 0 4 0;
#X connect 3 0 15 0;
#X connect 4 0 12 0;
#X connect 5 0 7 0;
#X connect 6 0 10 0;
#X connect 7 0 8 0;
#X connect 7 0 16 0;
#X connect 8 0 9 0;
#X connect 9 0 13 0;
#X connect 10 0 11 0;
#X connect 10 0 8 1;
#X connect 11 0 12 1;
#X connect 12 0 18 0;
#X connect 13 0 14 1;
#X connect 14 0 17 0;
#X connect 15 0 18 0;
#X connect 16 0 15 1;
#X connect 17 0 18 0;
#X connect 19 0 3 0;
