#N canvas 0 148 450 507 10;
#X obj 144 64 *~ 100;
#X obj 176 282 hip~ 25;
#X obj 174 314 clip~ -0.9 0.9;
#X obj 171 345 hip~ 25;
#X obj 166 385 outlet~;
#X obj 143 15 inlet~;
#X obj 142 34 bp~ 40 5;
#X obj 279 37 noise~;
#X obj 278 62 lop~ 7;
#X obj 279 88 lop~ 7;
#X obj 278 111 lop~ 7;
#X obj 280 140 *~ 12;
#X obj 278 167 *~ 0.5;
#X obj 277 192 hip~ 10;
#X obj 190 242 *~;
#X connect 0 0 14 0;
#X connect 1 0 2 0;
#X connect 2 0 3 0;
#X connect 3 0 4 0;
#X connect 5 0 6 0;
#X connect 6 0 0 0;
#X connect 7 0 8 0;
#X connect 8 0 9 0;
#X connect 9 0 10 0;
#X connect 10 0 11 0;
#X connect 11 0 12 0;
#X connect 12 0 13 0;
#X connect 13 0 14 1;
#X connect 14 0 1 0;
