#N canvas 150 110 845 678 10;
#N canvas 0 167 538 497 chirper 0;
#X obj 222 357 *~;
#X obj 222 260 cos~;
#X obj 222 238 +~ 0.25;
#X obj 222 282 clip~ 0 1;
#X obj 237 324 osc~ 12342;
#X obj 251 304 osc~ 5134;
#X obj 239 171 wrap~;
#X obj 223 214 +~;
#X obj 160 133 clip~ 0 1;
#X obj 160 170 wrap~;
#X obj 239 134 clip~ 1 4;
#X obj 205 94 *~ 44;
#X obj 204 71 phasor~ 0.8;
#X obj 222 381 *~ 0.05;
#X obj 237 406 inlet~;
#X obj 211 426 *~;
#X obj 197 456 outlet~;
#X connect 0 0 13 0;
#X connect 1 0 3 0;
#X connect 2 0 1 0;
#X connect 3 0 0 0;
#X connect 4 0 0 1;
#X connect 5 0 0 1;
#X connect 6 0 7 1;
#X connect 7 0 2 0;
#X connect 8 0 9 0;
#X connect 9 0 7 0;
#X connect 10 0 6 0;
#X connect 11 0 8 0;
#X connect 11 0 10 0;
#X connect 12 0 11 0;
#X connect 13 0 15 0;
#X connect 14 0 15 1;
#X connect 15 0 16 0;
#X restore 181 161 pd chirper;
#N canvas 0 91 772 704 mosquito 0;
#X obj 157 329 phasor~ 600;
#X obj 247 329 phasor~ 600;
#X obj 248 304 +~;
#X obj 264 276 osc~ 0.2;
#X obj 226 234 +~;
#X obj 289 98 noise~;
#X obj 158 358 >~ 0.97;
#X obj 248 358 >~ 0.97;
#X obj 289 120 lop~ 1;
#X obj 289 142 *~ 2000;
#X obj 214 554 *~;
#X obj 263 555 *~;
#X obj 237 488 sig~ 1;
#X obj 236 513 -~;
#X obj 226 143 lop~ 0.2;
#X obj 341 256 noise~;
#X obj 343 347 clip~ 0 1;
#X obj 343 323 *~ 1e+09;
#X obj 342 278 lop~ 0.2;
#X obj 343 300 lop~ 0.2;
#X obj 196 430 *~;
#X obj 314 203 lop~ 0.5;
#X obj 303 166 *~ 0.2;
#X obj 194 456 *~ 0.02;
#X obj 226 167 *~ 3000;
#X obj 226 189 +~ 600;
#X obj 159 384 bp~ 8000 12;
#X obj 250 387 bp~ 8000 12;
#X obj 300 553 inlet~;
#X obj 222 587 *~;
#X obj 208 617 outlet~;
#X connect 0 0 6 0;
#X connect 1 0 7 0;
#X connect 2 0 1 0;
#X connect 3 0 2 1;
#X connect 4 0 0 0;
#X connect 4 0 2 0;
#X connect 5 0 8 0;
#X connect 5 0 14 0;
#X connect 6 0 26 0;
#X connect 7 0 27 0;
#X connect 8 0 9 0;
#X connect 9 0 4 1;
#X connect 9 0 3 0;
#X connect 9 0 22 0;
#X connect 10 0 29 0;
#X connect 11 0 29 0;
#X connect 12 0 13 0;
#X connect 13 0 10 1;
#X connect 14 0 24 0;
#X connect 15 0 18 0;
#X connect 16 0 20 1;
#X connect 17 0 16 0;
#X connect 18 0 19 0;
#X connect 19 0 17 0;
#X connect 20 0 23 0;
#X connect 21 0 13 1;
#X connect 21 0 11 1;
#X connect 22 0 21 0;
#X connect 23 0 10 0;
#X connect 23 0 11 0;
#X connect 24 0 25 0;
#X connect 25 0 4 0;
#X connect 26 0 20 0;
#X connect 27 0 20 0;
#X connect 28 0 29 1;
#X connect 29 0 30 0;
#X restore 339 -35 pd mosquito;
#N canvas 0 110 632 558 rattler 0;
#X obj 121 158 sig~ 1;
#X obj 121 190 /~;
#X obj 174 167 +~ 1;
#X obj 175 141 *~;
#X obj 230 167 noise~;
#X obj 121 215 *~;
#X obj 121 309 *~;
#X obj 230 213 *~ 0.1;
#X obj 317 186 clip~ 0 1;
#X obj 121 342 *~ 0.2;
#X obj 316 163 *~ 3;
#X obj 317 211 *~ 1;
#X obj 175 112 *~ 6;
#X obj 317 140 osc~ 0.5;
#X obj 175 90 osc~ 10;
#X obj 230 189 bp~ 7000 13;
#X obj 121 241 bp~ 6000 16;
#X obj 138 365 inlet~;
#X obj 109 389 *~;
#X obj 95 419 outlet~;
#X connect 0 0 1 0;
#X connect 1 0 5 0;
#X connect 2 0 1 1;
#X connect 3 0 2 0;
#X connect 4 0 15 0;
#X connect 5 0 16 0;
#X connect 6 0 9 0;
#X connect 7 0 16 0;
#X connect 8 0 11 0;
#X connect 9 0 18 0;
#X connect 10 0 8 0;
#X connect 11 0 6 1;
#X connect 12 0 3 0;
#X connect 12 0 3 1;
#X connect 13 0 10 0;
#X connect 14 0 12 0;
#X connect 15 0 5 1;
#X connect 15 0 7 0;
#X connect 16 0 6 0;
#X connect 17 0 18 1;
#X connect 18 0 19 0;
#X restore 190 302 pd rattler;
#N canvas 558 257 519 413 critters2 0;
#X obj 93 226 *~;
#X obj 94 188 *~;
#X obj 94 152 *~;
#X obj 126 46 unpack 1 2 3 4;
#X obj 92 253 hip~ 20;
#X obj 95 107 cos~;
#X obj 158 106 cos~;
#X obj 233 105 cos~;
#X obj 303 105 cos~;
#X obj 303 75 phasor~;
#X obj 234 75 phasor~;
#X obj 158 76 phasor~;
#X obj 96 76 phasor~;
#X obj 126 -1 loadbang;
#X text 129 296 night critters \, ajf2005;
#X obj 108 270 osc~ 0.01;
#X obj 91 295 *~;
#X obj 91 317 *~ 0.007;
#X msg 126 23 2012 4 20 2;
#X obj 92 345 *~;
#X obj 158 316 inlet~;
#X obj 78 375 outlet~;
#X connect 0 0 4 0;
#X connect 1 0 0 0;
#X connect 2 0 1 0;
#X connect 3 0 12 0;
#X connect 3 1 11 0;
#X connect 3 2 10 0;
#X connect 3 3 9 0;
#X connect 4 0 16 0;
#X connect 5 0 2 0;
#X connect 6 0 2 1;
#X connect 7 0 1 1;
#X connect 8 0 0 1;
#X connect 9 0 8 0;
#X connect 10 0 7 0;
#X connect 11 0 6 0;
#X connect 12 0 5 0;
#X connect 13 0 18 0;
#X connect 15 0 16 1;
#X connect 16 0 17 0;
#X connect 17 0 19 0;
#X connect 18 0 3 0;
#X connect 19 0 21 0;
#X connect 20 0 19 1;
#X restore 5 -31 pd critters2;
#N canvas 0 72 537 728 frog 0;
#X obj 95 461 *~ 1;
#X obj 105 564 *~ 0.45;
#X obj 208 153 vline~;
#X obj 148 339 wrap~;
#X obj 148 390 *~;
#X obj 97 413 sig~ 1;
#X obj 96 440 /~;
#X obj 148 416 +~ 1;
#X obj 148 318 -~ 1;
#X obj 12 520 vcf~ 800 40;
#X obj 96 521 vcf~ 1 40;
#X obj 168 520 vcf~ 2600 20;
#X obj 201 445 *~ 120;
#X obj 157 446 *~ 60;
#X obj 254 445 *~ 340;
#X msg 208 132 1 \, 0 400;
#X msg 286 53 80;
#X msg 321 53 60;
#X msg 359 53 40;
#X obj 147 272 *~;
#X obj 96 590 hip~ 10;
#X obj 299 32 loadbang;
#X obj 208 62 metro 1000;
#X obj 208 110 sel 0;
#X obj 185 181 sig~ 1;
#X obj 184 204 -~;
#X obj 149 364 *~ 42;
#X obj 148 244 *~ 2.3;
#X obj 156 470 +~ 600;
#X obj 201 470 +~ 1500;
#X obj 254 470 +~ 2300;
#X obj 148 295 *~ 4;
#X obj 202 419 *~ 0.35;
#X obj 208 85 random 7;
#X obj 155 616 inlet~;
#X obj 95 615 *~ 0.1;
#X obj 102 645 *~;
#X obj 88 675 outlet~;
#X connect 0 0 9 0;
#X connect 0 0 10 0;
#X connect 0 0 11 0;
#X connect 1 0 20 0;
#X connect 2 0 25 1;
#X connect 3 0 26 0;
#X connect 4 0 7 0;
#X connect 5 0 6 0;
#X connect 6 0 0 0;
#X connect 7 0 6 1;
#X connect 8 0 3 0;
#X connect 9 0 1 0;
#X connect 10 0 20 0;
#X connect 11 0 1 0;
#X connect 12 0 29 0;
#X connect 13 0 28 0;
#X connect 14 0 30 0;
#X connect 15 0 2 0;
#X connect 16 0 9 2;
#X connect 17 0 10 2;
#X connect 18 0 11 2;
#X connect 19 0 31 0;
#X connect 19 0 32 0;
#X connect 20 0 35 0;
#X connect 21 0 18 0;
#X connect 21 0 17 0;
#X connect 21 0 16 0;
#X connect 21 0 22 0;
#X connect 22 0 33 0;
#X connect 23 0 15 0;
#X connect 24 0 25 0;
#X connect 25 0 27 0;
#X connect 26 0 4 0;
#X connect 26 0 4 1;
#X connect 27 0 19 0;
#X connect 27 0 19 1;
#X connect 28 0 9 1;
#X connect 29 0 10 1;
#X connect 30 0 11 1;
#X connect 31 0 8 0;
#X connect 32 0 12 0;
#X connect 32 0 13 0;
#X connect 32 0 14 0;
#X connect 33 0 23 0;
#X connect 34 0 36 1;
#X connect 35 0 36 0;
#X connect 36 0 37 0;
#X restore 522 -35 pd frog;
#N canvas 71 72 543 728 frog2 0;
#X obj 95 461 *~ 1;
#X obj 105 564 *~ 0.45;
#X obj 208 153 vline~;
#X obj 148 339 wrap~;
#X obj 148 390 *~;
#X obj 97 413 sig~ 1;
#X obj 96 440 /~;
#X obj 148 416 +~ 1;
#X obj 148 318 -~ 1;
#X obj 149 364 *~ 122;
#X obj 12 520 vcf~ 800 40;
#X obj 96 521 vcf~ 1 40;
#X obj 168 520 vcf~ 2600 20;
#X obj 201 393 *~ -1;
#X obj 262 304 sig~ 1;
#X obj 261 327 -~;
#X obj 261 361 min~ 0.5;
#X obj 201 361 max~ 0.9;
#X obj 147 272 *~;
#X obj 148 220 *~ -1;
#X obj 208 188 min~ 0.5;
#X obj 147 189 max~ 0.5;
#X obj 96 590 hip~ 10;
#X obj 299 32 loadbang;
#X obj 208 110 sel 0;
#X obj 156 470 +~ 900;
#X obj 201 470 +~ 1800;
#X obj 254 470 +~ 2900;
#X obj 254 445 *~ 240;
#X obj 201 445 *~ 90;
#X obj 157 446 *~ 40;
#X obj 200 417 *~ 3;
#X obj 148 244 *~ 3;
#X msg 208 132 1 \, 0 200;
#X obj 148 295 *~ 2;
#X msg 359 53 30;
#X msg 321 53 40;
#X msg 286 53 50;
#X obj 208 62 metro 700;
#X obj 208 85 random 7;
#X obj 156 612 inlet~;
#X obj 96 611 *~ 0.2;
#X obj 310 618 *~;
#X obj 296 648 outlet~;
#X connect 0 0 10 0;
#X connect 0 0 11 0;
#X connect 0 0 12 0;
#X connect 1 0 22 0;
#X connect 2 0 15 1;
#X connect 2 0 21 0;
#X connect 2 0 20 0;
#X connect 3 0 9 0;
#X connect 4 0 7 0;
#X connect 5 0 6 0;
#X connect 6 0 0 0;
#X connect 7 0 6 1;
#X connect 8 0 3 0;
#X connect 9 0 4 0;
#X connect 9 0 4 1;
#X connect 10 0 1 0;
#X connect 11 0 22 0;
#X connect 12 0 1 0;
#X connect 13 0 31 0;
#X connect 14 0 15 0;
#X connect 15 0 16 0;
#X connect 15 0 17 0;
#X connect 16 0 31 0;
#X connect 17 0 13 0;
#X connect 18 0 34 0;
#X connect 19 0 32 0;
#X connect 20 0 32 0;
#X connect 21 0 19 0;
#X connect 22 0 41 0;
#X connect 23 0 35 0;
#X connect 23 0 36 0;
#X connect 23 0 37 0;
#X connect 23 0 38 0;
#X connect 24 0 33 0;
#X connect 25 0 10 1;
#X connect 26 0 11 1;
#X connect 27 0 12 1;
#X connect 28 0 27 0;
#X connect 29 0 26 0;
#X connect 30 0 25 0;
#X connect 31 0 28 0;
#X connect 31 0 29 0;
#X connect 31 0 30 0;
#X connect 32 0 18 0;
#X connect 32 0 18 1;
#X connect 33 0 2 0;
#X connect 34 0 8 0;
#X connect 35 0 12 2;
#X connect 36 0 11 2;
#X connect 37 0 10 2;
#X connect 38 0 39 0;
#X connect 39 0 24 0;
#X connect 40 0 42 1;
#X connect 41 0 42 0;
#X connect 42 0 43 0;
#X restore 440 -35 pd frog2;
#N canvas 0 91 532 508 frog 0;
#X obj 111 124 noise~;
#X obj 112 159 *~;
#X obj 161 75 *~;
#X obj 161 100 *~;
#X obj 162 123 *~;
#X obj 112 286 *~;
#X obj 113 235 vcf~ 500 1;
#X obj 203 139 +~ 450;
#X obj 111 312 *~;
#X obj 162 261 osc~ 12;
#X obj 222 194 loadbang;
#X obj 161 51 osc~ 0.4444;
#X msg 222 216 80;
#X obj 112 208 bp~ 510 220;
#X obj 111 182 bp~ 450 220;
#X obj 205 117 *~ 70;
#X obj 113 262 *~ 60;
#X obj 128 419 inlet~;
#X obj 125 368 lop~ 1;
#X obj 369 158 bng 15 250 50 0 empty empty empty 0 -6 0 8 -262144 -1
-1;
#X obj 302 231 sel 0 1;
#X msg 300 253 0;
#X msg 335 253 1;
#X obj 301 208 random 4;
#X obj 110 391 *~;
#X obj 301 183 metro 1300;
#X obj 110 336 *~ 0.4;
#X obj 94 428 *~;
#X obj 80 458 outlet~;
#X connect 0 0 1 0;
#X connect 1 0 14 0;
#X connect 2 0 3 0;
#X connect 2 0 3 1;
#X connect 2 0 5 1;
#X connect 2 0 15 0;
#X connect 3 0 4 0;
#X connect 3 0 4 1;
#X connect 4 0 1 1;
#X connect 5 0 8 0;
#X connect 6 0 16 0;
#X connect 7 0 6 1;
#X connect 8 0 26 0;
#X connect 9 0 8 1;
#X connect 10 0 12 0;
#X connect 10 0 25 0;
#X connect 11 0 2 0;
#X connect 11 0 2 1;
#X connect 12 0 6 2;
#X connect 13 0 6 0;
#X connect 14 0 13 0;
#X connect 15 0 7 0;
#X connect 16 0 5 0;
#X connect 17 0 27 1;
#X connect 18 0 24 1;
#X connect 19 0 25 0;
#X connect 20 0 21 0;
#X connect 20 1 22 0;
#X connect 21 0 18 0;
#X connect 22 0 18 0;
#X connect 23 0 20 0;
#X connect 24 0 27 0;
#X connect 25 0 23 0;
#X connect 26 0 24 0;
#X connect 27 0 28 0;
#X restore 649 -37 pd frog reson;
#N canvas 636 208 537 503 cricket 0;
#X obj 141 220 cos~;
#X obj 156 140 cos~;
#X obj 141 197 +~;
#X obj 104 164 wrap~;
#X obj 156 168 *~ 0.2;
#X obj 140 247 *~;
#X obj 156 119 wrap~;
#X obj 119 281 *~;
#X obj 66 162 cos~;
#X obj 129 57 phasor~ 18;
#X obj 104 140 *~ 250;
#X obj 156 95 *~ 2.1;
#X obj 264 179 *~;
#X obj 212 104 noise~;
#X obj 212 126 lop~ 5;
#X obj 197 224 *~;
#X obj 198 200 +~ 0.6;
#X obj 211 157 *~ 12;
#X obj 264 131 phasor~ -2;
#X obj 261 -9 noise~;
#X obj 262 13 lop~ 0.2;
#X obj 263 35 lop~ 0.2;
#X obj 263 82 clip~ 0 1;
#X obj 263 58 *~ 1e+09;
#X obj 119 311 *~;
#X obj 263 108 *~ -2;
#X obj 264 154 lop~ 8;
#X obj 95 374 *~;
#X obj 74 451 outlet~;
#X obj 122 344 *~ 0.07;
#X msg 214 318 \$1 50;
#X obj 214 341 line~;
#X obj 214 281 inlet;
#X connect 0 0 5 0;
#X connect 1 0 4 0;
#X connect 2 0 0 0;
#X connect 3 0 2 0;
#X connect 4 0 2 1;
#X connect 5 0 7 1;
#X connect 6 0 1 0;
#X connect 7 0 24 0;
#X connect 8 0 7 0;
#X connect 9 0 10 0;
#X connect 9 0 11 0;
#X connect 9 0 8 0;
#X connect 10 0 3 0;
#X connect 11 0 6 0;
#X connect 12 0 15 1;
#X connect 13 0 14 0;
#X connect 14 0 17 0;
#X connect 14 0 26 0;
#X connect 15 0 5 1;
#X connect 16 0 15 0;
#X connect 17 0 16 0;
#X connect 18 0 26 0;
#X connect 19 0 20 0;
#X connect 20 0 21 0;
#X connect 21 0 23 0;
#X connect 22 0 24 1;
#X connect 22 0 25 0;
#X connect 23 0 22 0;
#X connect 24 0 29 0;
#X connect 25 0 18 0;
#X connect 26 0 12 1;
#X connect 26 0 12 0;
#X connect 27 0 28 0;
#X connect 29 0 27 0;
#X connect 30 0 31 0;
#X connect 31 0 27 1;
#X connect 32 0 30 0;
#X restore 14 165 pd cricket;
#N canvas 0 129 559 558 cricket 0;
#X obj 141 220 cos~;
#X obj 156 140 cos~;
#X obj 141 197 +~;
#X obj 104 164 wrap~;
#X obj 119 344 *~ 0.07;
#X obj 156 168 *~ 0.2;
#X obj 140 247 *~;
#X obj 156 119 wrap~;
#X obj 119 281 *~;
#X obj 66 162 cos~;
#X obj 104 140 *~ 250;
#X obj 156 95 *~ 2.1;
#X obj 264 179 *~;
#X obj 212 104 noise~;
#X obj 212 126 lop~ 5;
#X obj 197 224 *~;
#X obj 198 200 +~ 0.6;
#X obj 211 157 *~ 12;
#X obj 264 131 phasor~ -2;
#X obj 261 -9 noise~;
#X obj 263 82 clip~ 0 1;
#X obj 263 58 *~ 1e+09;
#X obj 119 311 *~;
#X obj 264 154 lop~ 8;
#X obj 129 57 phasor~ 12;
#X obj 263 108 *~ -3;
#X obj 263 35 lop~ 0.1;
#X obj 262 13 lop~ 0.1;
#X obj 136 368 inlet~;
#X obj 109 397 *~;
#X obj 95 427 outlet~;
#X connect 0 0 6 0;
#X connect 1 0 5 0;
#X connect 2 0 0 0;
#X connect 3 0 2 0;
#X connect 4 0 29 0;
#X connect 5 0 2 1;
#X connect 6 0 8 1;
#X connect 7 0 1 0;
#X connect 8 0 22 0;
#X connect 9 0 8 0;
#X connect 10 0 3 0;
#X connect 11 0 7 0;
#X connect 12 0 15 1;
#X connect 13 0 14 0;
#X connect 14 0 17 0;
#X connect 14 0 23 0;
#X connect 15 0 6 1;
#X connect 16 0 15 0;
#X connect 17 0 16 0;
#X connect 18 0 23 0;
#X connect 19 0 27 0;
#X connect 20 0 22 1;
#X connect 20 0 25 0;
#X connect 21 0 20 0;
#X connect 22 0 4 0;
#X connect 23 0 12 1;
#X connect 23 0 12 0;
#X connect 24 0 10 0;
#X connect 24 0 11 0;
#X connect 24 0 9 0;
#X connect 25 0 18 0;
#X connect 26 0 21 0;
#X connect 27 0 26 0;
#X connect 28 0 29 1;
#X connect 29 0 30 0;
#X restore 90 162 pd cricket;
#N canvas 0 110 586 454 cricket 0;
#X obj 216 113 osc~ 3000;
#X obj 151 119 *~;
#X obj 152 42 osc~ 3.6;
#X obj 151 147 *~;
#X obj 152 69 +~ 1;
#X obj 152 93 *~ 0.5;
#X obj 151 173 *~;
#X obj 217 88 +~ 3000;
#X obj 216 63 *~ 300;
#X obj 151 203 *~;
#X obj 217 40 osc~ 120;
#X obj 296 25 noise~;
#X obj 298 116 clip~ 0 1;
#X obj 298 92 *~ 1e+09;
#X obj 298 69 lop~ 0.1;
#X obj 297 47 lop~ 0.1;
#X obj 151 231 *~;
#X obj 180 290 inlet~;
#X obj 152 265 *~ 0.05;
#X obj 142 313 *~;
#X obj 128 343 outlet~;
#X connect 0 0 9 1;
#X connect 1 0 3 0;
#X connect 1 0 3 1;
#X connect 2 0 4 0;
#X connect 3 0 6 0;
#X connect 3 0 6 1;
#X connect 4 0 5 0;
#X connect 5 0 1 0;
#X connect 5 0 1 1;
#X connect 6 0 9 0;
#X connect 7 0 0 0;
#X connect 8 0 7 0;
#X connect 9 0 16 0;
#X connect 10 0 8 0;
#X connect 11 0 15 0;
#X connect 12 0 16 1;
#X connect 13 0 12 0;
#X connect 14 0 13 0;
#X connect 15 0 14 0;
#X connect 16 0 18 0;
#X connect 17 0 19 1;
#X connect 18 0 19 0;
#X connect 19 0 20 0;
#X restore 191 -32 pd cricket japanese;
#N canvas 0 91 494 370 critters 0;
#X obj 93 226 *~;
#X obj 94 188 *~;
#X obj 94 152 *~;
#X obj 126 46 unpack 1 2 3 4;
#X obj 92 253 hip~ 20;
#X obj 95 107 cos~;
#X obj 158 106 cos~;
#X obj 233 105 cos~;
#X obj 303 105 cos~;
#X obj 303 75 phasor~;
#X obj 234 75 phasor~;
#X obj 158 76 phasor~;
#X obj 96 76 phasor~;
#X obj 126 -1 loadbang;
#X text 129 296 night critters \, ajf2005;
#X msg 126 23 2134 4.279 20.4 15.5;
#X obj 108 270 osc~ 0.01;
#X obj 91 295 *~;
#X obj 91 317 *~ 0.007;
#X obj 270 351 inlet~;
#X obj 227 382 *~;
#X obj 213 412 outlet~;
#X connect 0 0 4 0;
#X connect 1 0 0 0;
#X connect 2 0 1 0;
#X connect 3 0 12 0;
#X connect 3 1 11 0;
#X connect 3 2 10 0;
#X connect 3 3 9 0;
#X connect 4 0 17 0;
#X connect 5 0 2 0;
#X connect 6 0 2 1;
#X connect 7 0 1 1;
#X connect 8 0 0 1;
#X connect 9 0 8 0;
#X connect 10 0 7 0;
#X connect 11 0 6 0;
#X connect 12 0 5 0;
#X connect 13 0 15 0;
#X connect 15 0 3 0;
#X connect 16 0 17 1;
#X connect 17 0 18 0;
#X connect 18 0 20 0;
#X connect 19 0 20 1;
#X connect 20 0 21 0;
#X restore 105 -31 pd critters;
#N canvas 0 91 772 704 bee 0;
#X obj 157 329 phasor~ 600;
#X obj 247 329 phasor~ 600;
#X obj 248 304 +~;
#X obj 264 276 osc~ 0.2;
#X obj 226 234 +~;
#X obj 289 98 noise~;
#X obj 158 358 >~ 0.97;
#X obj 248 358 >~ 0.97;
#X obj 289 120 lop~ 1;
#X obj 289 142 *~ 2000;
#X obj 214 554 *~;
#X obj 263 555 *~;
#X obj 237 488 sig~ 1;
#X obj 236 513 -~;
#X obj 159 384 bp~ 6000 12;
#X obj 250 387 bp~ 6000 12;
#X obj 226 143 lop~ 0.2;
#X obj 226 167 *~ 5000;
#X obj 341 256 noise~;
#X obj 343 347 clip~ 0 1;
#X obj 343 323 *~ 1e+09;
#X obj 342 278 lop~ 0.2;
#X obj 343 300 lop~ 0.2;
#X obj 196 430 *~;
#X obj 226 189 +~ 300;
#X obj 314 203 lop~ 0.5;
#X obj 303 166 *~ 0.2;
#X obj 194 456 *~ 0.02;
#X obj 297 556 inlet~;
#X obj 229 609 *~;
#X obj 171 636 outlet~;
#X connect 0 0 6 0;
#X connect 1 0 7 0;
#X connect 2 0 1 0;
#X connect 3 0 2 1;
#X connect 4 0 0 0;
#X connect 4 0 2 0;
#X connect 5 0 8 0;
#X connect 5 0 16 0;
#X connect 6 0 14 0;
#X connect 7 0 15 0;
#X connect 8 0 9 0;
#X connect 9 0 4 1;
#X connect 9 0 3 0;
#X connect 9 0 26 0;
#X connect 10 0 29 0;
#X connect 11 0 29 0;
#X connect 12 0 13 0;
#X connect 13 0 10 1;
#X connect 14 0 23 0;
#X connect 15 0 23 0;
#X connect 16 0 17 0;
#X connect 17 0 24 0;
#X connect 18 0 21 0;
#X connect 19 0 23 1;
#X connect 20 0 19 0;
#X connect 21 0 22 0;
#X connect 22 0 20 0;
#X connect 23 0 27 0;
#X connect 24 0 4 0;
#X connect 25 0 13 1;
#X connect 25 0 11 1;
#X connect 26 0 25 0;
#X connect 27 0 10 0;
#X connect 27 0 11 0;
#X connect 28 0 29 1;
#X connect 29 0 30 0;
#X restore 711 170 pd bee;
#N canvas 0 91 607 636 fly 0;
#X obj 110 164 +~ 284;
#X obj 110 185 phasor~ 640;
#X obj 96 395 /~;
#X obj 112 368 +~ 1;
#X obj 113 344 *~;
#X obj 66 344 sig~ 1;
#X obj 110 77 noise~;
#X obj 110 98 lop~ 2;
#X obj 110 116 lop~ 2;
#X obj 110 136 *~ 2000;
#X obj 111 208 -~ 0.5;
#X obj 111 240 *~;
#X obj 111 264 *~ -4;
#X obj 111 293 +~ 1;
#X obj 172 113 * 4;
#X obj 222 155 / 500;
#X obj 105 422 *~;
#X obj 174 83 line;
#X msg 214 54 280 60;
#X obj 112 316 *~ 16;
#X obj 107 443 bp~ 2000 0.3;
#X msg 169 55 0 20;
#X obj 173 25 sel 0 1;
#X obj 264 -26 loadbang;
#X obj 127 -15 bng 15 250 50 0 empty empty empty 0 -6 0 8 -262144 -1
-1;
#X obj 174 -24 metro 1000;
#X obj 174 -1 random 3;
#X obj 128 492 inlet~;
#X obj 108 470 *~ 0.007;
#X obj 252 505 *~;
#X obj 238 535 outlet~;
#X connect 0 0 1 0;
#X connect 1 0 10 0;
#X connect 2 0 16 0;
#X connect 3 0 2 1;
#X connect 4 0 3 0;
#X connect 5 0 2 0;
#X connect 6 0 7 0;
#X connect 7 0 8 0;
#X connect 8 0 9 0;
#X connect 9 0 0 0;
#X connect 10 0 11 0;
#X connect 10 0 11 1;
#X connect 11 0 12 0;
#X connect 12 0 13 0;
#X connect 13 0 19 0;
#X connect 14 0 9 1;
#X connect 15 0 16 1;
#X connect 16 0 20 0;
#X connect 17 0 15 0;
#X connect 17 0 14 0;
#X connect 17 0 0 1;
#X connect 18 0 17 0;
#X connect 19 0 4 0;
#X connect 19 0 4 1;
#X connect 20 0 28 0;
#X connect 21 0 17 0;
#X connect 22 0 21 0;
#X connect 22 1 18 0;
#X connect 23 0 25 0;
#X connect 24 0 25 0;
#X connect 25 0 26 0;
#X connect 26 0 22 0;
#X connect 27 0 29 1;
#X connect 28 0 29 0;
#X connect 29 0 30 0;
#X restore 658 170 pd fly;
#N canvas 0 91 682 607 circada1 0;
#X obj 17 7 noise~;
#X obj 17 75 hip~ 5000;
#X obj 17 96 hip~ 5000;
#X obj 17 117 lop~ 8000;
#X obj 17 138 lop~ 8000;
#X obj 99 216 *~;
#X obj 187 216 *~;
#X obj 99 317 *~;
#X obj 116 271 +~;
#X obj 99 337 bp~ 6000 7;
#X obj 99 358 hip~ 4000;
#X obj 99 240 *~;
#X obj 99 168 *~ -90;
#X obj 99 144 +~ 1;
#X obj 143 96 lop~ 2;
#X obj 143 72 lop~ 2;
#X obj 99 120 *~ 30;
#X obj 187 120 *~ 10;
#X obj 187 144 +~ 1;
#X obj 187 168 *~ -20;
#X obj 99 192 phasor~;
#X obj 187 192 phasor~;
#X obj 116 295 lop~ 70;
#X obj 307 103 metro 3000;
#X obj 308 78 loadbang;
#X obj 375 78 bng 15 250 50 0 empty empty empty 0 -6 0 8 -262144 -1
-1;
#X obj 308 151 sel 0 1;
#X obj 99 402 *~;
#X obj 157 379 lop~ 1;
#X msg 279 198 0;
#X msg 314 198 1;
#X obj 307 128 random 3;
#X obj 33 385 inlet~;
#X obj 99 380 *~ 0.1;
#X obj 89 440 *~;
#X obj 75 470 outlet~;
#X connect 0 0 1 0;
#X connect 0 0 15 0;
#X connect 1 0 2 0;
#X connect 2 0 3 0;
#X connect 3 0 4 0;
#X connect 4 0 7 0;
#X connect 5 0 11 0;
#X connect 5 0 11 1;
#X connect 6 0 8 1;
#X connect 7 0 9 0;
#X connect 8 0 22 0;
#X connect 9 0 10 0;
#X connect 10 0 33 0;
#X connect 11 0 8 0;
#X connect 12 0 20 0;
#X connect 13 0 12 0;
#X connect 14 0 16 0;
#X connect 14 0 17 0;
#X connect 15 0 14 0;
#X connect 16 0 13 0;
#X connect 17 0 18 0;
#X connect 18 0 19 0;
#X connect 19 0 21 0;
#X connect 20 0 5 0;
#X connect 20 0 5 1;
#X connect 21 0 6 0;
#X connect 21 0 6 1;
#X connect 22 0 7 1;
#X connect 23 0 31 0;
#X connect 24 0 23 0;
#X connect 25 0 23 0;
#X connect 26 0 29 0;
#X connect 26 1 30 0;
#X connect 27 0 34 1;
#X connect 28 0 27 1;
#X connect 29 0 28 0;
#X connect 30 0 28 0;
#X connect 31 0 26 0;
#X connect 32 0 34 0;
#X connect 33 0 27 0;
#X connect 34 0 35 0;
#X restore 753 274 pd circada1;
#X obj 339 -56 tgl 15 1 empty empty empty 0 -6 0 8 -262144 -1 -1 1
1;
#X obj 658 148 tgl 15 1 empty empty empty 0 -6 0 8 -262144 -1 -1 1
1;
#X obj 711 149 tgl 15 1 empty empty empty 0 -6 0 8 -262144 -1 -1 1
1;
#X obj 270 283 tgl 15 1 empty empty empty 0 -6 0 8 -262144 -1 -1 0
1;
#X obj 15 145 tgl 15 1 empty empty empty 0 -6 0 8 -262144 -1 -1 1 1
;
#X obj 190 283 tgl 15 1 empty empty empty 0 -6 0 8 -262144 -1 -1 0
1;
#X obj 181 143 tgl 15 1 empty empty empty 0 -6 0 8 -262144 -1 -1 1
1;
#X obj 650 -56 tgl 15 1 empty empty empty 0 -6 0 8 -262144 -1 -1 1
1;
#X obj 4 -51 tgl 15 1 empty empty empty 0 -6 0 8 -262144 -1 -1 1 1
;
#X obj 105 -49 tgl 15 1 empty empty empty 0 -6 0 8 -262144 -1 -1 1
1;
#X obj 522 -55 tgl 15 1 empty empty empty 0 -6 0 8 -262144 -1 -1 1
1;
#X obj 439 -54 tgl 15 1 empty empty empty 0 -6 0 8 -262144 -1 -1 1
1;
#X obj 753 254 tgl 15 1 empty empty empty 0 -6 0 8 -262144 -1 -1 0
1;
#N canvas 0 91 548 524 circada2 0;
#X obj 187 27 noise~;
#X obj 139 106 +~ 1;
#X obj 224 125 +~ 1;
#X obj 224 83 lop~ 5;
#X obj 224 62 lop~ 5;
#X obj 139 169 hip~ 12000;
#X obj 139 190 hip~ 12000;
#X obj 139 148 phasor~;
#X obj 139 127 *~ -120;
#X obj 224 167 osc~;
#X obj 224 104 *~ 0;
#X obj 224 188 clip~ 0 1;
#X obj 150 223 bp~ 5000 30;
#X obj 234 223 bp~ 6000 30;
#X obj 223 248 bp~ 8000 30;
#X obj 139 248 bp~ 7000 30;
#X obj 138 309 *~;
#X obj 138 330 bp~ 6000 5;
#X obj 224 146 *~ -12;
#X obj 139 64 bp~ 120 40;
#X obj 139 85 *~ 190;
#X obj 162 374 inlet~;
#X obj 138 359 *~;
#X obj 222 329 lop~ 1;
#X obj 381 54 loadbang;
#X obj 448 54 bng 15 250 50 0 empty empty empty 0 -6 0 8 -262144 -1
-1;
#X obj 381 127 sel 0 1;
#X msg 352 174 0;
#X msg 387 174 1;
#X obj 380 104 random 4;
#X obj 380 79 metro 1000;
#X obj 138 288 *~ 0.7;
#X obj 131 399 *~;
#X obj 117 429 outlet~;
#X connect 0 0 4 0;
#X connect 0 0 19 0;
#X connect 1 0 8 0;
#X connect 2 0 18 0;
#X connect 3 0 10 0;
#X connect 4 0 3 0;
#X connect 5 0 6 0;
#X connect 6 0 12 0;
#X connect 6 0 13 0;
#X connect 6 0 14 0;
#X connect 6 0 15 0;
#X connect 7 0 5 0;
#X connect 8 0 7 0;
#X connect 9 0 11 0;
#X connect 10 0 2 0;
#X connect 11 0 16 1;
#X connect 12 0 31 0;
#X connect 13 0 31 0;
#X connect 14 0 31 0;
#X connect 15 0 31 0;
#X connect 16 0 17 0;
#X connect 17 0 22 0;
#X connect 18 0 9 0;
#X connect 19 0 20 0;
#X connect 20 0 1 0;
#X connect 21 0 32 1;
#X connect 22 0 32 0;
#X connect 23 0 22 1;
#X connect 24 0 30 0;
#X connect 25 0 30 0;
#X connect 26 0 27 0;
#X connect 26 1 28 0;
#X connect 27 0 23 0;
#X connect 28 0 23 0;
#X connect 29 0 26 0;
#X connect 30 0 29 0;
#X connect 31 0 16 0;
#X connect 32 0 33 0;
#X restore 14 342 pd circada2;
#X obj 11 290 tgl 15 1 empty empty empty 0 -6 0 8 -262144 -1 -1 1 1
;
#N canvas 0 110 590 525 flutter 0;
#X obj 121 158 sig~ 1;
#X obj 121 190 /~;
#X obj 174 167 +~ 1;
#X obj 175 141 *~;
#X obj 175 90 osc~ 20;
#X obj 230 167 noise~;
#X obj 121 215 *~;
#X obj 230 189 hip~ 8000;
#X obj 175 112 *~ 14;
#X obj 320 68 noise~;
#X obj 322 159 clip~ 0 1;
#X obj 322 135 *~ 1e+09;
#X obj 121 309 *~;
#X obj 121 241 bp~ 10000 15;
#X obj 230 213 *~ 0.1;
#X obj 304 226 clip~ 0 1;
#X obj 305 251 *~;
#X obj 303 181 osc~ 0.3;
#X obj 321 90 lop~ 0.2;
#X obj 322 112 lop~ 0.2;
#X obj 121 342 *~ 0.2;
#X obj 303 203 *~ 3;
#X obj 138 364 inlet~;
#X obj 114 397 *~;
#X obj 100 427 outlet~;
#X connect 0 0 1 0;
#X connect 1 0 6 0;
#X connect 2 0 1 1;
#X connect 3 0 2 0;
#X connect 4 0 8 0;
#X connect 5 0 7 0;
#X connect 6 0 13 0;
#X connect 7 0 6 1;
#X connect 7 0 14 0;
#X connect 8 0 3 0;
#X connect 8 0 3 1;
#X connect 9 0 18 0;
#X connect 10 0 16 1;
#X connect 11 0 10 0;
#X connect 12 0 20 0;
#X connect 13 0 12 0;
#X connect 14 0 13 0;
#X connect 15 0 16 0;
#X connect 16 0 12 1;
#X connect 17 0 21 0;
#X connect 18 0 19 0;
#X connect 19 0 11 0;
#X connect 20 0 23 0;
#X connect 21 0 15 0;
#X connect 22 0 23 1;
#X connect 23 0 24 0;
#X restore 270 302 pd flutter;
#X obj 623 320 outlet~;
#X obj 243 -290 inlet;
#X obj -1 -162 tgl 15 0 empty empty empty 17 7 0 10 -262144 -1 -1 1
1;
#X obj 0 -110 random 200;
#X obj 105 -79 >= 100;
#X obj 106 -155 tgl 15 0 empty empty empty 17 7 0 10 -262144 -1 -1
1 1;
#X obj 107 -103 random 200;
#X obj 191 -186 tgl 15 0 empty empty empty 17 7 0 10 -262144 -1 -1
1 1;
#X obj 192 -134 random 200;
#X obj 107 -125 metro 500;
#X obj 0 -132 metro 1000;
#X obj 192 -156 metro 1500;
#X floatatom 192 -108 5 0 0 0 - - -;
#X obj 194 -81 < 100;
#X obj 189 -59 tgl 15 0 empty empty empty 17 7 0 10 -262144 -1 -1 0
1;
#X obj 3 -77 < 100;
#X obj 338 -134 random 200;
#X floatatom 338 -108 5 0 0 0 - - -;
#X obj 340 -81 < 100;
#X obj 338 -156 metro 1250;
#X obj 327 -175 tgl 15 0 empty empty empty 17 7 0 10 -262144 -1 -1
1 1;
#X obj 437 -133 random 200;
#X floatatom 437 -107 5 0 0 0 - - -;
#X obj 439 -80 < 100;
#X obj 426 -174 tgl 15 0 empty empty empty 17 7 0 10 -262144 -1 -1
1 1;
#X obj 13 67 random 200;
#X floatatom 13 93 5 0 0 0 - - -;
#X obj 15 120 < 100;
#X obj 14 20 tgl 15 0 empty empty empty 17 7 0 10 -262144 -1 -1 1 1
;
#X obj 13 45 metro 1350;
#X obj 437 -155 metro 1300;
#X obj 94 142 tgl 15 1 empty empty empty 0 -6 0 8 -262144 -1 -1 1 1
;
#X obj 92 64 random 200;
#X floatatom 92 90 5 0 0 0 - - -;
#X obj 94 117 < 100;
#X obj 93 17 tgl 15 0 empty empty empty 17 7 0 10 -262144 -1 -1 1 1
;
#X obj 92 42 metro 1375;
#X obj 180 70 random 200;
#X floatatom 180 96 5 0 0 0 - - -;
#X obj 182 123 < 100;
#X obj 181 23 tgl 15 0 empty empty empty 17 7 0 10 -262144 -1 -1 1
1;
#X obj 180 48 metro 1405;
#X obj 541 -140 random 200;
#X floatatom 541 -114 5 0 0 0 - - -;
#X obj 543 -87 < 100;
#X obj 530 -181 tgl 15 0 empty empty empty 17 7 0 10 -262144 -1 -1
1 1;
#X obj 541 -162 metro 1700;
#X obj 660 -157 random 200;
#X floatatom 660 -131 5 0 0 0 - - -;
#X obj 662 -104 < 100;
#X obj 649 -198 tgl 15 0 empty empty empty 17 7 0 10 -262144 -1 -1
1 1;
#X obj 662 -178 metro 500;
#X obj 655 71 random 200;
#X floatatom 655 97 5 0 0 0 - - -;
#X obj 657 124 < 100;
#X obj 655 31 tgl 15 0 empty empty empty 17 7 0 10 -262144 -1 -1 1
1;
#X obj 657 50 metro 1750;
#X obj 743 58 random 200;
#X floatatom 743 84 5 0 0 0 - - -;
#X obj 745 111 < 100;
#X obj 743 18 tgl 15 0 empty empty empty 17 7 0 10 -262144 -1 -1 1
1;
#X obj 745 37 metro 1550;
#X obj 198 202 random 200;
#X floatatom 198 228 5 0 0 0 - - -;
#X obj 200 255 < 100;
#X obj 295 162 tgl 15 0 empty empty empty 17 7 0 10 -262144 -1 -1 1
1;
#X obj 200 181 metro 1750;
#X obj 759 179 random 200;
#X floatatom 759 205 5 0 0 0 - - -;
#X obj 761 232 < 100;
#X obj 759 139 tgl 15 0 empty empty empty 17 7 0 10 -262144 -1 -1 1
1;
#X obj 761 158 metro 1750;
#X obj 84 245 random 200;
#X floatatom 84 271 5 0 0 0 - - -;
#X obj 86 298 < 100;
#X obj 84 205 tgl 15 0 empty empty empty 17 7 0 10 -262144 -1 -1 1
1;
#X obj 86 224 metro 1750;
#X obj 343 202 random 200;
#X floatatom 343 228 5 0 0 0 - - -;
#X obj 345 255 < 100;
#X obj 343 162 tgl 15 0 empty empty empty 17 7 0 10 -262144 -1 -1 1
1;
#X obj 345 181 metro 1750;
#X connect 0 0 30 0;
#X connect 1 0 30 0;
#X connect 2 0 30 0;
#X connect 3 0 30 0;
#X connect 4 0 30 0;
#X connect 5 0 30 0;
#X connect 6 0 30 0;
#X connect 7 0 30 0;
#X connect 8 0 30 0;
#X connect 9 0 30 0;
#X connect 10 0 30 0;
#X connect 11 0 30 0;
#X connect 12 0 30 0;
#X connect 13 0 30 0;
#X connect 14 0 1 0;
#X connect 15 0 12 0;
#X connect 16 0 11 0;
#X connect 17 0 29 0;
#X connect 18 0 7 0;
#X connect 19 0 2 0;
#X connect 20 0 0 0;
#X connect 21 0 6 0;
#X connect 22 0 3 0;
#X connect 23 0 10 0;
#X connect 24 0 4 0;
#X connect 25 0 5 0;
#X connect 26 0 13 0;
#X connect 27 0 30 0;
#X connect 28 0 27 0;
#X connect 29 0 30 0;
#X connect 31 0 37 0;
#X connect 31 0 35 0;
#X connect 31 0 32 0;
#X connect 31 0 50 0;
#X connect 31 0 54 0;
#X connect 31 0 58 0;
#X connect 31 0 65 0;
#X connect 31 0 70 0;
#X connect 31 0 75 0;
#X connect 31 0 80 0;
#X connect 31 0 85 0;
#X connect 31 0 90 0;
#X connect 31 0 95 0;
#X connect 31 0 100 0;
#X connect 31 0 105 0;
#X connect 31 0 110 0;
#X connect 32 0 40 0;
#X connect 33 0 45 0;
#X connect 34 0 23 0;
#X connect 35 0 39 0;
#X connect 36 0 34 0;
#X connect 37 0 41 0;
#X connect 38 0 42 0;
#X connect 39 0 36 0;
#X connect 40 0 33 0;
#X connect 41 0 38 0;
#X connect 42 0 43 0;
#X connect 43 0 44 0;
#X connect 44 0 9 0;
#X connect 45 0 22 0;
#X connect 46 0 47 0;
#X connect 47 0 48 0;
#X connect 48 0 14 0;
#X connect 49 0 46 0;
#X connect 50 0 49 0;
#X connect 51 0 52 0;
#X connect 52 0 53 0;
#X connect 53 0 25 0;
#X connect 54 0 60 0;
#X connect 55 0 56 0;
#X connect 56 0 57 0;
#X connect 57 0 18 0;
#X connect 58 0 59 0;
#X connect 59 0 55 0;
#X connect 60 0 51 0;
#X connect 61 0 8 0;
#X connect 62 0 63 0;
#X connect 63 0 64 0;
#X connect 64 0 61 0;
#X connect 65 0 66 0;
#X connect 66 0 62 0;
#X connect 67 0 68 0;
#X connect 68 0 69 0;
#X connect 69 0 20 0;
#X connect 70 0 71 0;
#X connect 71 0 67 0;
#X connect 72 0 73 0;
#X connect 73 0 74 0;
#X connect 74 0 24 0;
#X connect 75 0 76 0;
#X connect 76 0 72 0;
#X connect 77 0 78 0;
#X connect 78 0 79 0;
#X connect 79 0 21 0;
#X connect 80 0 81 0;
#X connect 81 0 77 0;
#X connect 82 0 83 0;
#X connect 83 0 84 0;
#X connect 84 0 15 0;
#X connect 85 0 86 0;
#X connect 86 0 82 0;
#X connect 87 0 88 0;
#X connect 88 0 89 0;
#X connect 89 0 16 0;
#X connect 90 0 91 0;
#X connect 91 0 87 0;
#X connect 92 0 93 0;
#X connect 93 0 94 0;
#X connect 94 0 19 0;
#X connect 95 0 96 0;
#X connect 96 0 92 0;
#X connect 97 0 98 0;
#X connect 98 0 99 0;
#X connect 99 0 26 0;
#X connect 100 0 101 0;
#X connect 101 0 97 0;
#X connect 102 0 103 0;
#X connect 103 0 104 0;
#X connect 104 0 28 0;
#X connect 105 0 106 0;
#X connect 106 0 102 0;
#X connect 107 0 108 0;
#X connect 108 0 109 0;
#X connect 109 0 17 0;
#X connect 110 0 111 0;
#X connect 111 0 107 0;
