#N canvas 227 117 863 683 10;
#X obj 134 283 fire;
#X obj 215 328 bp~ 1200 0.6;
#X obj 309 333 bp~ 2600 0.4;
#X obj 414 335 hip~ 1000;
#X obj 229 381 *~ 0.2;
#X obj 233 109 hsl 128 15 0.1 1.5 0 0 empty empty Crackling -2 -8 0
10 -262144 -1 -1 7534 1;
#X obj 78 112 hsl 128 15 0.1 1.5 0 0 empty empty Rumbling -2 -8 0 10
-262144 -1 -1 7534 1;
#X obj 130 332 bp~ 600 0.5;
#X obj 232 284 fire;
#X obj 314 293 fire;
#X obj 423 292 fire;
#X obj 194 411 outlet~;
#X obj 201 2 inlet;
#N canvas 244 234 343 493 automation 0;
#X obj 77 27 snapshot~;
#X obj 15 0 metro 10;
#X obj 15 -27 loadbang;
#X obj 145 27 snapshot~;
#X obj 77 108 +;
#X obj 77 81 + 0.125;
#X obj 77 54 * 0.125;
#X obj 145 0 osc~ 0.3;
#X obj 77 135 spigot;
#X obj 110 110 tgl 15 1 empty empty automation 17 7 0 10 -262144 -1
-1 1 1;
#X obj 77 162 outlet;
#X obj 77 0 osc~ 0.04;
#X obj 210 -24 inlet;
#X obj 146 54 * 0.25;
#X obj 146 83 + 0.5;
#X connect 0 0 6 0;
#X connect 1 0 0 0;
#X connect 1 0 3 0;
#X connect 2 0 1 0;
#X connect 3 0 13 0;
#X connect 4 0 8 0;
#X connect 5 0 4 0;
#X connect 6 0 5 0;
#X connect 7 0 3 0;
#X connect 8 0 10 0;
#X connect 9 0 8 1;
#X connect 11 0 0 0;
#X connect 12 0 9 0;
#X connect 13 0 14 0;
#X connect 14 0 4 1;
#X coords 0 -1 1 1 95 36 2 100 100;
#X restore 257 65 pd automation;
#N canvas 244 234 343 493 automation 0;
#X obj 77 27 snapshot~;
#X obj 15 0 metro 10;
#X obj 15 -27 loadbang;
#X obj 145 27 snapshot~;
#X obj 77 108 +;
#X obj 77 81 + 0.125;
#X obj 77 54 * 0.125;
#X obj 145 0 osc~ 0.3;
#X obj 77 135 spigot;
#X obj 110 110 tgl 15 1 empty empty automation 17 7 0 10 -262144 -1
-1 1 1;
#X obj 77 162 outlet;
#X obj 77 0 osc~ 0.04;
#X obj 210 -24 inlet;
#X obj 146 54 * 0.25;
#X obj 146 83 + 0.5;
#X connect 0 0 6 0;
#X connect 1 0 0 0;
#X connect 1 0 3 0;
#X connect 2 0 1 0;
#X connect 3 0 13 0;
#X connect 4 0 8 0;
#X connect 5 0 4 0;
#X connect 6 0 5 0;
#X connect 7 0 3 0;
#X connect 8 0 10 0;
#X connect 9 0 8 1;
#X connect 11 0 0 0;
#X connect 12 0 9 0;
#X connect 13 0 14 0;
#X connect 14 0 4 1;
#X coords 0 -1 1 1 95 36 2 100 100;
#X restore 66 49 pd automation;
#X obj 569 68 hsl 128 15 0.1 1.5 0 0 empty empty Crackling -2 -8 0
10 -262144 -1 -1 7534 1;
#X obj 424 86 hsl 128 15 0.1 1.5 0 0 empty empty Rumbling -2 -8 0 10
-262144 -1 -1 7534 1;
#N canvas 244 234 343 493 automation 0;
#X obj 77 27 snapshot~;
#X obj 15 0 metro 10;
#X obj 15 -27 loadbang;
#X obj 145 27 snapshot~;
#X obj 77 108 +;
#X obj 77 81 + 0.125;
#X obj 77 54 * 0.125;
#X obj 145 0 osc~ 0.3;
#X obj 77 135 spigot;
#X obj 110 110 tgl 15 1 empty empty automation 17 7 0 10 -262144 -1
-1 1 1;
#X obj 77 162 outlet;
#X obj 77 0 osc~ 0.04;
#X obj 210 -24 inlet;
#X obj 146 54 * 0.25;
#X obj 146 83 + 0.5;
#X connect 0 0 6 0;
#X connect 1 0 0 0;
#X connect 1 0 3 0;
#X connect 2 0 1 0;
#X connect 3 0 13 0;
#X connect 4 0 8 0;
#X connect 5 0 4 0;
#X connect 6 0 5 0;
#X connect 7 0 3 0;
#X connect 8 0 10 0;
#X connect 9 0 8 1;
#X connect 11 0 0 0;
#X connect 12 0 9 0;
#X connect 13 0 14 0;
#X connect 14 0 4 1;
#X coords 0 -1 1 1 95 36 2 100 100;
#X restore 565 18 pd automation;
#N canvas 244 234 343 493 automation 0;
#X obj 77 27 snapshot~;
#X obj 15 0 metro 10;
#X obj 15 -27 loadbang;
#X obj 145 27 snapshot~;
#X obj 77 108 +;
#X obj 77 81 + 0.125;
#X obj 77 54 * 0.125;
#X obj 145 0 osc~ 0.3;
#X obj 77 135 spigot;
#X obj 110 110 tgl 15 1 empty empty automation 17 7 0 10 -262144 -1
-1 1 1;
#X obj 77 162 outlet;
#X obj 77 0 osc~ 0.04;
#X obj 210 -24 inlet;
#X obj 146 54 * 0.25;
#X obj 146 83 + 0.5;
#X connect 0 0 6 0;
#X connect 1 0 0 0;
#X connect 1 0 3 0;
#X connect 2 0 1 0;
#X connect 3 0 13 0;
#X connect 4 0 8 0;
#X connect 5 0 4 0;
#X connect 6 0 5 0;
#X connect 7 0 3 0;
#X connect 8 0 10 0;
#X connect 9 0 8 1;
#X connect 11 0 0 0;
#X connect 12 0 9 0;
#X connect 13 0 14 0;
#X connect 14 0 4 1;
#X coords 0 -1 1 1 95 36 2 100 100;
#X restore 412 23 pd automation;
#X obj 668 193 hsl 128 15 0.1 1.5 0 0 empty empty Crackling -2 -8 0
10 -262144 -1 -1 7534 1;
#X obj 513 196 hsl 128 15 0.1 1.5 0 0 empty empty Rumbling -2 -8 0
10 -262144 -1 -1 7534 1;
#N canvas 244 234 343 493 automation 0;
#X obj 77 27 snapshot~;
#X obj 15 0 metro 10;
#X obj 15 -27 loadbang;
#X obj 145 27 snapshot~;
#X obj 77 108 +;
#X obj 77 81 + 0.125;
#X obj 77 54 * 0.125;
#X obj 145 0 osc~ 0.3;
#X obj 77 135 spigot;
#X obj 110 110 tgl 15 1 empty empty automation 17 7 0 10 -262144 -1
-1 1 1;
#X obj 77 162 outlet;
#X obj 77 0 osc~ 0.04;
#X obj 210 -24 inlet;
#X obj 146 54 * 0.25;
#X obj 146 83 + 0.5;
#X connect 0 0 6 0;
#X connect 1 0 0 0;
#X connect 1 0 3 0;
#X connect 2 0 1 0;
#X connect 3 0 13 0;
#X connect 4 0 8 0;
#X connect 5 0 4 0;
#X connect 6 0 5 0;
#X connect 7 0 3 0;
#X connect 8 0 10 0;
#X connect 9 0 8 1;
#X connect 11 0 0 0;
#X connect 12 0 9 0;
#X connect 13 0 14 0;
#X connect 14 0 4 1;
#X coords 0 -1 1 1 95 36 2 100 100;
#X restore 692 149 pd automation;
#N canvas 244 234 343 493 automation 0;
#X obj 77 27 snapshot~;
#X obj 15 0 metro 10;
#X obj 15 -27 loadbang;
#X obj 145 27 snapshot~;
#X obj 77 108 +;
#X obj 77 81 + 0.125;
#X obj 77 54 * 0.125;
#X obj 145 0 osc~ 0.3;
#X obj 77 135 spigot;
#X obj 110 110 tgl 15 1 empty empty automation 17 7 0 10 -262144 -1
-1 1 1;
#X obj 77 162 outlet;
#X obj 77 0 osc~ 0.04;
#X obj 210 -24 inlet;
#X obj 146 54 * 0.25;
#X obj 146 83 + 0.5;
#X connect 0 0 6 0;
#X connect 1 0 0 0;
#X connect 1 0 3 0;
#X connect 2 0 1 0;
#X connect 3 0 13 0;
#X connect 4 0 8 0;
#X connect 5 0 4 0;
#X connect 6 0 5 0;
#X connect 7 0 3 0;
#X connect 8 0 10 0;
#X connect 9 0 8 1;
#X connect 11 0 0 0;
#X connect 12 0 9 0;
#X connect 13 0 14 0;
#X connect 14 0 4 1;
#X coords 0 -1 1 1 95 36 2 100 100;
#X restore 501 133 pd automation;
#X obj 719 338 hsl 128 15 0.1 1.5 0 0 empty empty Crackling -2 -8 0
10 -262144 -1 -1 7534 1;
#X obj 564 341 hsl 128 15 0.1 1.5 0 0 empty empty Rumbling -2 -8 0
10 -262144 -1 -1 7534 1;
#N canvas 244 234 343 493 automation 0;
#X obj 77 27 snapshot~;
#X obj 15 0 metro 10;
#X obj 15 -27 loadbang;
#X obj 145 27 snapshot~;
#X obj 77 108 +;
#X obj 77 81 + 0.125;
#X obj 77 54 * 0.125;
#X obj 145 0 osc~ 0.3;
#X obj 77 135 spigot;
#X obj 110 110 tgl 15 1 empty empty automation 17 7 0 10 -262144 -1
-1 1 1;
#X obj 77 162 outlet;
#X obj 77 0 osc~ 0.04;
#X obj 210 -24 inlet;
#X obj 146 54 * 0.25;
#X obj 146 83 + 0.5;
#X connect 0 0 6 0;
#X connect 1 0 0 0;
#X connect 1 0 3 0;
#X connect 2 0 1 0;
#X connect 3 0 13 0;
#X connect 4 0 8 0;
#X connect 5 0 4 0;
#X connect 6 0 5 0;
#X connect 7 0 3 0;
#X connect 8 0 10 0;
#X connect 9 0 8 1;
#X connect 11 0 0 0;
#X connect 12 0 9 0;
#X connect 13 0 14 0;
#X connect 14 0 4 1;
#X coords 0 -1 1 1 95 36 2 100 100;
#X restore 743 294 pd automation;
#N canvas 244 234 343 493 automation 0;
#X obj 77 27 snapshot~;
#X obj 15 0 metro 10;
#X obj 15 -27 loadbang;
#X obj 145 27 snapshot~;
#X obj 77 108 +;
#X obj 77 81 + 0.125;
#X obj 77 54 * 0.125;
#X obj 145 0 osc~ 0.3;
#X obj 77 135 spigot;
#X obj 110 110 tgl 15 1 empty empty automation 17 7 0 10 -262144 -1
-1 1 1;
#X obj 77 162 outlet;
#X obj 77 0 osc~ 0.04;
#X obj 210 -24 inlet;
#X obj 146 54 * 0.25;
#X obj 146 83 + 0.5;
#X connect 0 0 6 0;
#X connect 1 0 0 0;
#X connect 1 0 3 0;
#X connect 2 0 1 0;
#X connect 3 0 13 0;
#X connect 4 0 8 0;
#X connect 5 0 4 0;
#X connect 6 0 5 0;
#X connect 7 0 3 0;
#X connect 8 0 10 0;
#X connect 9 0 8 1;
#X connect 11 0 0 0;
#X connect 12 0 9 0;
#X connect 13 0 14 0;
#X connect 14 0 4 1;
#X coords 0 -1 1 1 95 36 2 100 100;
#X restore 552 278 pd automation;
#X obj 65 17 delay 100;
#X obj 273 27 delay 200;
#X obj 410 -2 delay 300;
#X obj 562 -8 delay 300;
#X obj 558 110 delay 400;
#X obj 682 120 delay 450;
#X obj 557 251 delay 500;
#X obj 740 262 delay 750;
#X connect 0 0 7 0;
#X connect 1 0 4 0;
#X connect 2 0 4 0;
#X connect 3 0 4 0;
#X connect 4 0 11 0;
#X connect 5 0 0 1;
#X connect 6 0 0 0;
#X connect 7 0 4 0;
#X connect 8 0 1 0;
#X connect 9 0 2 0;
#X connect 10 0 3 0;
#X connect 12 0 27 0;
#X connect 12 0 28 0;
#X connect 12 0 29 0;
#X connect 12 0 30 0;
#X connect 12 0 31 0;
#X connect 12 0 32 0;
#X connect 12 0 33 0;
#X connect 12 0 34 0;
#X connect 13 0 5 0;
#X connect 14 0 6 0;
#X connect 15 0 8 1;
#X connect 16 0 8 0;
#X connect 17 0 15 0;
#X connect 18 0 16 0;
#X connect 19 0 9 1;
#X connect 20 0 9 0;
#X connect 21 0 19 0;
#X connect 22 0 20 0;
#X connect 23 0 10 1;
#X connect 24 0 10 0;
#X connect 25 0 23 0;
#X connect 26 0 24 0;
#X connect 27 0 14 0;
#X connect 28 0 13 0;
#X connect 29 0 18 0;
#X connect 30 0 17 0;
#X connect 31 0 22 0;
#X connect 32 0 21 0;
#X connect 33 0 26 0;
#X connect 34 0 25 0;
