#N canvas 447 175 720 625 10;
#X obj 102 139 s phone;
#X obj 401 524 catch~ stream_left;
#X obj 34 27 inlet;
#X obj 414 579 outlet~;
#X obj 99 118 nbx 5 14 -1e+37 1e+37 0 0 empty empty empty 0 -8 0 10
-262144 -1 -1 0.169806 256;
#X obj 92 91 hsl 128 15 0.0001 0.9 0 0 empty empty empty -2 -8 0 10
-262144 -1 -1 2395 1;
#N canvas 616 323 544 408 automation 0;
#X obj 77 27 snapshot~;
#X obj 15 0 metro 10;
#X obj 15 -27 loadbang;
#X obj 145 27 snapshot~;
#X obj 77 108 +;
#X obj 77 81 + 0.125;
#X obj 77 54 * 0.125;
#X obj 145 54 * 0.25;
#X obj 145 81 + 0.25;
#X obj 145 0 osc~ 0.3;
#X obj 77 135 spigot;
#X obj 110 110 tgl 15 1 empty empty automation 17 7 0 10 -262144 -1
-1 1 1;
#X obj 77 162 outlet;
#X obj 77 0 osc~ 0.04;
#X obj 167 225 inlet;
#X connect 0 0 6 0;
#X connect 1 0 0 0;
#X connect 1 0 3 0;
#X connect 2 0 1 0;
#X connect 3 0 7 0;
#X connect 4 0 10 0;
#X connect 5 0 4 0;
#X connect 6 0 5 0;
#X connect 7 0 8 0;
#X connect 8 0 4 1;
#X connect 9 0 3 0;
#X connect 10 0 12 0;
#X connect 11 0 10 1;
#X connect 13 0 0 0;
#X connect 14 0 11 0;
#X coords 0 -1 1 1 95 36 2 100 100;
#X restore 89 33 pd automation;
#X msg 326 90 0.9;
#X obj 308 34 loadbang;
#X obj 88 167 water;
#X obj 18 168 water;
#X obj 20 196 water;
#X obj 20 223 water;
#X obj 21 248 water;
#X obj 22 278 water;
#X obj 24 305 water;
#X obj 27 335 water;
#X obj 30 365 water;
#X obj 90 195 water;
#X obj 90 222 water;
#X obj 91 247 water;
#X obj 92 277 water;
#X obj 94 304 water;
#X obj 97 334 water;
#X obj 100 364 water;
#X obj 150 165 water;
#X obj 152 193 water;
#X obj 152 220 water;
#X obj 153 245 water;
#X obj 154 275 water;
#X obj 156 302 water;
#X obj 159 332 water;
#X obj 162 362 water;
#X obj 220 164 water;
#X obj 222 192 water;
#X obj 222 219 water;
#X obj 223 244 water;
#X obj 224 274 water;
#X obj 226 301 water;
#X obj 229 331 water;
#X obj 232 361 water;
#X obj 300 166 water;
#X obj 302 194 water;
#X obj 302 221 water;
#X obj 303 246 water;
#X obj 304 276 water;
#X obj 306 303 water;
#X obj 309 333 water;
#X obj 312 363 water;
#X obj 370 165 water;
#X obj 372 193 water;
#X obj 372 220 water;
#X obj 373 245 water;
#X obj 374 275 water;
#X obj 376 302 water;
#X obj 379 332 water;
#X obj 382 362 water;
#X obj 453 164 water;
#X obj 455 192 water;
#X obj 455 219 water;
#X obj 456 244 water;
#X obj 457 274 water;
#X obj 459 301 water;
#X obj 462 331 water;
#X obj 465 361 water;
#X obj 523 163 water;
#X obj 525 191 water;
#X obj 525 218 water;
#X obj 526 243 water;
#X obj 527 273 water;
#X obj 529 300 water;
#X obj 532 330 water;
#X obj 535 360 water;
#X connect 1 0 3 0;
#X connect 2 0 6 0;
#X connect 4 0 0 0;
#X connect 5 0 4 0;
#X connect 6 0 5 0;
#X connect 7 0 5 0;
#X connect 8 0 7 0;
