#N canvas 0 72 1265 728 10;
#X text 206 16 wind 1;
#X obj 195 54 noise~;
#X obj 190 78 lop~ 0.1;
#X obj 187 104 *~ 80000;
#X obj 187 141 clip~ 0 1000;
#X obj 181 170 +~ 500;
#X obj 254 178 loadbang;
#X msg 256 204 7;
#X obj 157 221 vcf~ 600 23;
#X obj 154 295 *~ 0.25;
#X obj 157 350 bp~ 1000 7;
#X msg 294 272 1;
#X msg 308 318 2;
#X msg 327 382 3;
#X msg 406 417 4;
#X msg 390 238 23;
#X floatatom 557 59 5 0 0 0 - - -;
#X floatatom 683 111 5 0 0 0 - - -;
#X floatatom 767 100 5 0 0 0 - - -;
#X floatatom 821 83 5 0 0 0 - - -;
#X floatatom 876 81 5 0 0 0 - - -;
#X floatatom 532 157 5 0 0 0 - - -;
#X floatatom 846 277 5 0 0 0 - - -;
#X floatatom 914 274 5 0 0 0 - - -;
#X floatatom 547 414 5 0 0 0 - - -;
#X floatatom 987 331 5 0 0 0 - - -;
#X obj 693 -43 inlet;
#X obj 978 273 split 0.1 1.5;
#X obj 908 330 +;
#X obj 1038 4 sel 0;
#X obj 1034 103 delay 100;
#X obj 186 485 outlet~;
#X obj 259 495 outlet~;
#X obj 914 123 * 0.5;
#X obj 846 126 * 0.5;
#X obj 527 352 split 2 7;
#X floatatom 545 329 5 0 0 0 - - -;
#X obj 538 305 min 7;
#X obj 603 113 * 0.25;
#X floatatom 488 221 5 0 0 0 - - -;
#X obj 517 188 moses 0;
#X floatatom 542 218 5 0 0 0 - - -;
#X obj 485 245 * -1;
#X floatatom 482 274 5 0 0 0 - - -;
#X obj 688 138 * 0.25;
#X obj 776 133 * 0.35;
#X floatatom 663 414 5 0 0 0 - - -;
#X obj 643 352 split 2 7;
#X floatatom 661 329 5 0 0 0 - - -;
#X obj 654 305 min 7;
#X floatatom 604 221 5 0 0 0 - - -;
#X obj 633 188 moses 0;
#X floatatom 658 218 5 0 0 0 - - -;
#X obj 601 245 * -1;
#X floatatom 598 274 5 0 0 0 - - -;
#X floatatom 788 420 5 0 0 0 - - -;
#X obj 768 358 split 2 7;
#X floatatom 786 335 5 0 0 0 - - -;
#X obj 779 311 min 7;
#X floatatom 729 227 5 0 0 0 - - -;
#X obj 732 185 moses 0;
#X floatatom 783 224 5 0 0 0 - - -;
#X obj 726 251 * -1;
#X floatatom 723 280 5 0 0 0 - - -;
#X obj 722 499 +;
#X obj 714 548 split 1 7;
#X floatatom 694 594 5 0 0 0 - - -;
#X obj 783 512 / 2;
#X msg 1135 -6 7;
#X obj 547 37 random 750;
#X obj 661 57 random 750;
#X obj 747 42 random 750;
#X obj 828 27 random 750;
#X obj 906 16 random 750;
#X obj 543 13 metro 200;
#X obj 542 -17 tgl 15 0 empty empty empty 17 7 0 10 -262144 -1 -1 0
1;
#X obj 657 -1 tgl 15 0 empty empty empty 17 7 0 10 -262144 -1 -1 0
1;
#X obj 755 -12 tgl 15 0 empty empty empty 17 7 0 10 -262144 -1 -1 0
1;
#X obj 838 -34 tgl 15 0 empty empty empty 17 7 0 10 -262144 -1 -1 0
1;
#X obj 915 -53 tgl 15 0 empty empty empty 17 7 0 10 -262144 -1 -1 0
1;
#X obj 757 18 metro 230;
#X obj 656 25 metro 250;
#X obj 837 -7 metro 275;
#X obj 917 -22 metro 150;
#X obj 594 80 max 30;
#X obj 671 89 max 30;
#X obj 756 73 max 30;
#X obj 819 59 max 30;
#X obj 903 45 max 30;
#X connect 1 0 2 0;
#X connect 1 0 8 0;
#X connect 2 0 3 0;
#X connect 3 0 4 0;
#X connect 4 0 5 0;
#X connect 5 0 8 1;
#X connect 6 0 7 0;
#X connect 7 0 8 2;
#X connect 8 0 9 0;
#X connect 9 0 10 0;
#X connect 10 0 31 0;
#X connect 10 0 32 0;
#X connect 11 0 8 2;
#X connect 12 0 8 2;
#X connect 13 0 8 2;
#X connect 14 0 8 2;
#X connect 15 0 8 2;
#X connect 16 0 84 0;
#X connect 17 0 44 0;
#X connect 18 0 45 0;
#X connect 19 0 34 0;
#X connect 20 0 33 0;
#X connect 21 0 40 0;
#X connect 22 0 28 0;
#X connect 23 0 28 1;
#X connect 23 0 29 0;
#X connect 24 0 10 2;
#X connect 26 0 76 0;
#X connect 26 0 75 0;
#X connect 26 0 77 0;
#X connect 26 0 78 0;
#X connect 26 0 79 0;
#X connect 27 0 25 0;
#X connect 28 0 27 0;
#X connect 29 0 30 0;
#X connect 30 0 68 0;
#X connect 33 0 23 0;
#X connect 34 0 22 0;
#X connect 35 0 24 0;
#X connect 36 0 35 0;
#X connect 37 0 36 0;
#X connect 38 0 21 0;
#X connect 39 0 42 0;
#X connect 40 0 39 0;
#X connect 40 1 41 0;
#X connect 41 0 37 0;
#X connect 42 0 43 0;
#X connect 43 0 37 0;
#X connect 44 0 51 0;
#X connect 45 0 60 0;
#X connect 46 0 64 0;
#X connect 47 0 46 0;
#X connect 48 0 47 0;
#X connect 49 0 48 0;
#X connect 50 0 53 0;
#X connect 51 0 50 0;
#X connect 51 1 52 0;
#X connect 52 0 49 0;
#X connect 53 0 54 0;
#X connect 54 0 49 0;
#X connect 55 0 64 1;
#X connect 56 0 55 0;
#X connect 57 0 56 0;
#X connect 58 0 57 0;
#X connect 59 0 62 0;
#X connect 60 0 59 0;
#X connect 60 1 61 0;
#X connect 61 0 58 0;
#X connect 62 0 63 0;
#X connect 63 0 58 0;
#X connect 64 0 67 0;
#X connect 65 0 66 0;
#X connect 66 0 8 2;
#X connect 67 0 65 0;
#X connect 68 0 8 2;
#X connect 68 0 10 2;
#X connect 69 0 16 0;
#X connect 70 0 85 0;
#X connect 71 0 86 0;
#X connect 72 0 87 0;
#X connect 73 0 88 0;
#X connect 74 0 69 0;
#X connect 75 0 74 0;
#X connect 76 0 81 0;
#X connect 77 0 80 0;
#X connect 78 0 82 0;
#X connect 79 0 83 0;
#X connect 80 0 71 0;
#X connect 81 0 70 0;
#X connect 82 0 72 0;
#X connect 83 0 73 0;
#X connect 84 0 38 0;
#X connect 85 0 17 0;
#X connect 86 0 18 0;
#X connect 87 0 19 0;
#X connect 88 0 20 0;
