#N canvas 130 99 570 660 10;
#X obj 190 2 bng 15 250 50 0 empty empty empty 17 7 0 10 -262144 -1
-1;
#X obj 188 37 t b b;
#X obj 237 96 del 2000;
#X msg 239 122 0 800;
#X msg 153 125 1 2000;
#X obj 181 186 line;
#X obj 183 214 * 3.14159;
#X obj 181 243 * 0.5;
#X obj 178 273 cos;
#X obj 176 303 t b f;
#X msg 165 339 1;
#X obj 182 372 -;
#X obj 184 401 * 0.5;
#X obj 181 426 + 0.25;
#X obj 39 457 * 40;
#X obj 91 464 * 0.5;
#X obj 78 488 + 1.385;
#X obj 32 517 phasor~ 100;
#X obj 178 451 * 300;
#X obj 171 482 + 10;
#X obj 246 451 * 20;
#X obj 239 479 + 100;
#X obj 302 450 max 0.5;
#X obj 308 483 - 0.5;
#X obj 305 510 * 2;
#X obj 300 539 sqrt;
#X obj 377 447 * 7;
#X obj 374 476 + 60;
#X obj 41 551 *~;
#N canvas 105 244 450 300 ripple 0;
#X obj 145 98 inlet~;
#X obj 142 126 *~;
#X obj 140 149 wrap~;
#X obj 139 174 sqrt~;
#X obj 136 198 cos~;
#X obj 134 225 outlet~;
#X connect 0 0 1 0;
#X connect 0 0 1 1;
#X connect 1 0 2 0;
#X connect 2 0 3 0;
#X connect 3 0 4 0;
#X connect 4 0 5 0;
#X restore 39 586 pd ripple;
#N canvas -45 247 570 424 comber 1;
#X obj 32 40 inlet~;
#X obj 93 40 inlet;
#X obj 226 45 inlet;
#X obj 427 40 inlet;
#X obj 81 341 bp~ 1 1;
#X obj 134 342 bp~ 1 1;
#X obj 187 342 bp~ 1 1;
#X obj 240 343 bp~ 1 1;
#X obj 300 339 bp~ 1 1;
#X obj 360 342 bp~ 1 1;
#X obj 466 340 bp~ 1 1;
#X obj 418 341 bp~ 1 1;
#X obj 265 383 outlet~;
#X obj 127 94 + 0;
#X obj 203 136 +;
#X obj 275 74 * 1.414;
#X obj 306 112 * 1.414;
#X obj 339 142 * 1.414;
#X obj 370 180 * 1.414;
#X obj 403 201 * 1.414;
#X obj 482 239 * 1.414;
#X obj 224 105 t b;
#X obj 246 164 +;
#X obj 277 186 +;
#X obj 322 209 +;
#X obj 372 237 +;
#X obj 401 262 +;
#X obj 521 293 +;
#X connect 0 0 4 0;
#X connect 0 0 5 0;
#X connect 0 0 6 0;
#X connect 0 0 7 0;
#X connect 0 0 8 0;
#X connect 0 0 9 0;
#X connect 0 0 11 0;
#X connect 0 0 10 0;
#X connect 1 0 13 0;
#X connect 2 0 21 0;
#X connect 2 0 15 0;
#X connect 2 0 14 1;
#X connect 3 0 10 2;
#X connect 3 0 11 2;
#X connect 3 0 9 2;
#X connect 3 0 8 2;
#X connect 3 0 7 2;
#X connect 3 0 6 2;
#X connect 3 0 5 2;
#X connect 3 0 4 2;
#X connect 4 0 12 0;
#X connect 5 0 12 0;
#X connect 6 0 12 0;
#X connect 7 0 12 0;
#X connect 8 0 12 0;
#X connect 9 0 12 0;
#X connect 10 0 12 0;
#X connect 11 0 12 0;
#X connect 13 0 4 1;
#X connect 13 0 14 0;
#X connect 14 0 5 1;
#X connect 14 0 22 0;
#X connect 15 0 16 0;
#X connect 15 0 22 1;
#X connect 16 0 17 0;
#X connect 16 0 23 1;
#X connect 17 0 18 0;
#X connect 17 0 24 1;
#X connect 18 0 19 0;
#X connect 18 0 25 1;
#X connect 19 0 20 0;
#X connect 19 0 26 1;
#X connect 20 0 27 1;
#X connect 21 0 13 0;
#X connect 21 0 14 0;
#X connect 21 0 22 0;
#X connect 21 0 23 0;
#X connect 21 0 24 0;
#X connect 21 0 25 0;
#X connect 21 0 26 0;
#X connect 21 0 27 0;
#X connect 22 0 6 1;
#X connect 22 0 23 0;
#X connect 23 0 7 1;
#X connect 23 0 24 0;
#X connect 24 0 8 1;
#X connect 24 0 25 0;
#X connect 25 0 9 1;
#X connect 25 0 26 0;
#X connect 26 0 27 0;
#X connect 26 0 11 1;
#X connect 27 0 10 1;
#X restore 183 544 pd comber;
#X obj 43 620 *~ 0.1;
#X obj 252 603 *~;
#X obj 313 634 dac~;
#X connect 0 0 1 0;
#X connect 1 0 4 0;
#X connect 1 1 2 0;
#X connect 2 0 3 0;
#X connect 3 0 5 0;
#X connect 4 0 5 0;
#X connect 5 0 6 0;
#X connect 6 0 7 0;
#X connect 7 0 8 0;
#X connect 8 0 9 0;
#X connect 9 0 10 0;
#X connect 9 1 11 1;
#X connect 10 0 11 0;
#X connect 11 0 12 0;
#X connect 12 0 13 0;
#X connect 13 0 14 0;
#X connect 13 0 15 0;
#X connect 13 0 18 0;
#X connect 13 0 22 0;
#X connect 13 0 20 0;
#X connect 13 0 26 0;
#X connect 14 0 17 0;
#X connect 15 0 16 0;
#X connect 16 0 28 1;
#X connect 17 0 28 0;
#X connect 18 0 19 0;
#X connect 19 0 30 1;
#X connect 20 0 21 0;
#X connect 21 0 30 2;
#X connect 22 0 23 0;
#X connect 23 0 24 0;
#X connect 24 0 25 0;
#X connect 25 0 32 1;
#X connect 26 0 27 0;
#X connect 27 0 30 3;
#X connect 28 0 29 0;
#X connect 29 0 31 0;
#X connect 30 0 32 0;
#X connect 31 0 30 0;
#X connect 32 0 33 0;
#X connect 32 0 33 1;
